<svg height="21" viewBox="0 0 21 21" width="21" xmlns="http://www.w3.org/2000/svg"><path d="m280.5 272c5.246705 0 9.5-4.253295 9.5-9.5s-4.253295-9.5-9.5-9.5-9.5 4.253295-9.5 9.5 4.253295 9.5 9.5 9.5zm0 1c-5.79899 0-10.5-4.70101-10.5-10.5s4.70101-10.5 10.5-10.5 10.5 4.70101 10.5 10.5-4.70101 10.5-10.5 10.5zm-1.049232-11.542216 4.443157-2.351205-2.35026 4.439117-4.439322 2.350089zm4.523755-3.525238-5.263795 2.785466-2.780384 5.258789c-.490584.927884.169455 1.582249 1.093947 1.092841l5.259178-2.784106 2.784796-5.259858c.491368-.928085-.16881-1.582583-1.093742-1.093132z" transform="translate(-270 -252)"/></svg>